<svg xmlns="http://www.w3.org/2000/svg" version="1.1" xmlns:xlink="http://www.w3.org/1999/xlink" xmlns:svgjs="http://svgjs.dev/svgjs" width="2000" bor
 height="1500" viewBox="0 0 2000 1500"><rect width="2000" height="1500" fill="#000000"></rect><g transform="matrix(0.4880429477794046,0,0,0.4880429477794046,512.3767949293608,250.4048582995951)"><svg viewBox="0 0 241 247" data-background-color="#000000" preserveAspectRatio="xMidYMid meet" height="2049" width="2000" xmlns="http://www.w3.org/2000/svg" xmlns:xlink="http://www.w3.org/1999/xlink"><g id="tight-bounds" transform="matrix(1,0,0,1,-0.10363636363635464,-0.09999999999999432)"><svg viewBox="0 0 241.2072727272727 247.2" height="247.2" width="241.2072727272727"><g><svg viewBox="0 0 241.2072727272727 247.2" height="247.2" width="241.2072727272727"><g><svg viewBox="0 0 241.2072727272727 247.2" height="247.2" width="241.2072727272727"><g id="textblocktransform"><svg viewBox="0 0 241.2072727272727 247.2" height="247.2" width="241.2072727272727" id="textblock"><g><svg viewBox="0 0 241.2072727272727 247.2" height="247.2" width="241.2072727272727"><g transform="matrix(1,0,0,1,0,0)"><svg width="241.2072727272727" viewBox="3.44 -23.78 25.439999999999998 24.17" height="247.2" data-palette-color="#ffffff"><g class="wordmark-text-0" data-fill-palette-color="primary" id="text-0"><path d="M3.44-19.24L3.44-19.97Q3.44-21.66 3.86-22.47 4.27-23.29 5.4-23.29 6.52-23.29 7.98-22.49 9.45-21.68 9.63-21.68 9.81-21.68 10.45-22.12L10.45-22.12Q12.82-23.78 14.65-23.78L14.65-23.78 15.33-23.78Q16.46-23.78 17.22-23.17 17.99-22.56 17.99-21.45 17.99-20.34 17.02-19.82L17.02-19.82Q16.6-19.6 15.28-19.46 13.96-19.31 12.71-18.82 11.45-18.33 10.47-16.92L10.47-16.92Q9.06-14.84 9.06-8.84L9.06-8.84 8.96-6.1 8.91-4.54Q8.91-2.37 8.22-1.34 7.52-0.32 5.86-0.32L5.86-0.32 5.49-0.32Q4.03-0.32 3.71-1.81L3.71-1.81Q3.69-1.93 3.69-6.45L3.69-6.45 3.69-11.35 3.66-11.77 3.66-12.57 3.64-12.99Q3.64-13.4 3.64-13.82L3.64-13.82 3.54-16.97 3.44-19.24ZM27.02-5.59L27.02-5.59Q28.73-5.59 28.73-3.88L28.73-3.88Q28.85-3.39 28.85-3.17L28.85-3.17 28.88-2.76 28.88-2.54 28.85-2.44Q28.85 0.32 26.66 0.32L26.66 0.32 26.05 0.39 25.41 0.39 25.31 0.37 25.1 0.37Q24.9 0.32 24.8 0.32L24.8 0.32Q22.87 0.32 22.87-2.12L22.87-2.12 22.87-3.05Q22.95-3.42 22.95-3.88 22.95-4.35 23.45-4.96 23.95-5.57 24.88-5.57L24.88-5.57Q25.17-5.64 25.27-5.64L25.27-5.64 25.9-5.69 26.12-5.69 26.22-5.66 26.83-5.62Q26.93-5.59 27.02-5.59Z" fill="#ffffff" data-fill-palette-color="primary"></path></g></svg></g></svg></g></svg></g></svg></g></svg></g><defs></defs></svg><rect width="241.2072727272727" height="247.2" fill="none" stroke="none" visibility="hidden"></rect></g></svg></g></svg>